<svg width="24" height="28" viewBox="0 0 24 28" fill="none" xmlns="http://www.w3.org/2000/svg">
<path d="M4.745 22.3763C5.8075 21.4414 6.935 20.7025 8.1275 20.1597C9.31917 19.6158 10.61 19.3439 12 19.3439C13.39 19.3439 14.6808 19.6158 15.8725 20.1597C17.0642 20.7035 18.1917 21.4419 19.255 22.3748C20.08 21.3309 20.7438 20.0985 21.2463 18.6778C21.7488 17.2551 22 15.6948 22 13.997C22 10.6107 21.0263 7.72699 19.0788 5.34587C17.1313 2.96475 14.7717 1.7747 12 1.77571C9.22833 1.77673 6.86875 2.96729 4.92125 5.3474C2.97375 7.7275 2 10.6107 2 13.997C2 15.6948 2.25125 17.2551 2.75375 18.6778C3.25625 20.0996 3.92 21.3319 4.745 22.3748M12 14.7609C10.9475 14.7609 10.0592 14.3189 9.335 13.4349C8.61084 12.5509 8.24917 11.4652 8.25 10.1779C8.25083 8.89057 8.6125 7.8049 9.335 6.9209C10.0575 6.03689 10.9458 5.59488 12 5.59488C13.0542 5.59488 13.9425 6.03689 14.665 6.9209C15.3875 7.8049 15.7492 8.89057 15.75 10.1779C15.7508 11.4652 15.3892 12.5509 14.665 13.4349C13.9408 14.3189 13.0525 14.7609 12 14.7609ZM12 27.746C10.4308 27.746 8.96209 27.3891 7.59375 26.6752C6.22542 25.9612 5.03459 24.9856 4.02125 23.7481C3.00792 22.5107 2.20959 21.0554 1.62625 19.3821C1.04292 17.7088 0.750835 15.9138 0.750002 13.997C0.749168 12.0803 1.04125 10.2853 1.62625 8.61202C2.21125 6.93872 3.00959 5.48336 4.02125 4.24595C5.03459 3.00854 6.22542 2.03287 7.59375 1.31894C8.96209 0.605012 10.4308 0.248047 12 0.248047C13.5692 0.248047 15.0379 0.605012 16.4063 1.31894C17.7746 2.03287 18.9654 3.00854 19.9788 4.24595C20.9921 5.48336 21.7904 6.93872 22.3738 8.61202C22.9571 10.2853 23.2492 12.0803 23.25 13.997C23.2508 15.9138 22.9588 17.7088 22.3738 19.3821C21.7888 21.0554 20.9904 22.5107 19.9788 23.7481C18.9654 24.9856 17.7746 25.9612 16.4063 26.6752C15.0379 27.3891 13.5692 27.746 12 27.746Z" fill="black"/>
</svg>
