<svg width="31" height="31" viewBox="0 0 31 31" fill="none" xmlns="http://www.w3.org/2000/svg">
<path fill-rule="evenodd" clip-rule="evenodd" d="M26.3333 7.55556C25.7587 7.55556 25.2076 7.78383 24.8013 8.19016C24.3949 8.59649 24.1667 9.14759 24.1667 9.72222V11.1667H28.5V9.72222C28.5 9.14759 28.2717 8.59649 27.8654 8.19016C27.4591 7.78383 26.908 7.55556 26.3333 7.55556ZM28.5 12.6111H24.1667V24.5278L26.3333 27.7778L28.5 24.5278V12.6111ZM2.5 4.66667V26.3333C2.5 26.908 2.72827 27.4591 3.1346 27.8654C3.54093 28.2717 4.09203 28.5 4.66667 28.5H20.5556C21.1302 28.5 21.6813 28.2717 22.0876 27.8654C22.4939 27.4591 22.7222 26.908 22.7222 26.3333V4.66667C22.7222 4.09203 22.4939 3.54093 22.0876 3.1346C21.6813 2.72827 21.1302 2.5 20.5556 2.5H4.66667C4.09203 2.5 3.54093 2.72827 3.1346 3.1346C2.72827 3.54093 2.5 4.09203 2.5 4.66667ZM12.6111 9C12.6111 8.80845 12.6872 8.62475 12.8226 8.48931C12.9581 8.35387 13.1418 8.27778 13.3333 8.27778H19.1111C19.3027 8.27778 19.4864 8.35387 19.6218 8.48931C19.7572 8.62475 19.8333 8.80845 19.8333 9C19.8333 9.19155 19.7572 9.37525 19.6218 9.51069C19.4864 9.64613 19.3027 9.72222 19.1111 9.72222H13.3333C13.1418 9.72222 12.9581 9.64613 12.8226 9.51069C12.6872 9.37525 12.6111 9.19155 12.6111 9ZM13.3333 11.1667C13.1418 11.1667 12.9581 11.2428 12.8226 11.3782C12.6872 11.5136 12.6111 11.6973 12.6111 11.8889C12.6111 12.0804 12.6872 12.2641 12.8226 12.3996C12.9581 12.535 13.1418 12.6111 13.3333 12.6111H19.1111C19.3027 12.6111 19.4864 12.535 19.6218 12.3996C19.7572 12.2641 19.8333 12.0804 19.8333 11.8889C19.8333 11.6973 19.7572 11.5136 19.6218 11.3782C19.4864 11.2428 19.3027 11.1667 19.1111 11.1667H13.3333ZM12.6111 18.3889C12.6111 18.1973 12.6872 18.0136 12.8226 17.8782C12.9581 17.7428 13.1418 17.6667 13.3333 17.6667H19.1111C19.3027 17.6667 19.4864 17.7428 19.6218 17.8782C19.7572 18.0136 19.8333 18.1973 19.8333 18.3889C19.8333 18.5804 19.7572 18.7641 19.6218 18.8996C19.4864 19.035 19.3027 19.1111 19.1111 19.1111H13.3333C13.1418 19.1111 12.9581 19.035 12.8226 18.8996C12.6872 18.7641 12.6111 18.5804 12.6111 18.3889ZM13.3333 20.5556C13.1418 20.5556 12.9581 20.6316 12.8226 20.7671C12.6872 20.9025 12.6111 21.0862 12.6111 21.2778C12.6111 21.4693 12.6872 21.653 12.8226 21.7885C12.9581 21.9239 13.1418 22 13.3333 22H19.1111C19.3027 22 19.4864 21.9239 19.6218 21.7885C19.7572 21.653 19.8333 21.4693 19.8333 21.2778C19.8333 21.0862 19.7572 20.9025 19.6218 20.7671C19.4864 20.6316 19.3027 20.5556 19.1111 20.5556H13.3333ZM6.83333 18.3889V20.5556H9V18.3889H6.83333ZM6.11111 16.9444H9.72222C9.91377 16.9444 10.0975 17.0205 10.2329 17.156C10.3684 17.2914 10.4444 17.4751 10.4444 17.6667V21.2778C10.4444 21.4693 10.3684 21.653 10.2329 21.7885C10.0975 21.9239 9.91377 22 9.72222 22H6.11111C5.91957 22 5.73587 21.9239 5.60042 21.7885C5.46498 21.653 5.38889 21.4693 5.38889 21.2778V17.6667C5.38889 17.4751 5.46498 17.2914 5.60042 17.156C5.73587 17.0205 5.91957 16.9444 6.11111 16.9444ZM10.9551 9.51061C11.0866 9.3744 11.1594 9.19196 11.1578 9.0026C11.1561 8.81324 11.0802 8.63209 10.9463 8.49819C10.8124 8.36428 10.6312 8.28833 10.4418 8.28668C10.2525 8.28503 10.07 8.35783 9.93383 8.48939L7.55556 10.8677L6.62172 9.93383C6.48551 9.80227 6.30307 9.72948 6.11371 9.73112C5.92435 9.73277 5.7432 9.80873 5.6093 9.94263C5.47539 10.0765 5.39944 10.2577 5.39779 10.447C5.39615 10.6364 5.46894 10.8188 5.6005 10.9551L7.55556 12.9101L10.9551 9.51061Z" fill="#5F8CF8"/>
</svg>
