<svg width="24" height="28" viewBox="0 0 24 28" fill="none" xmlns="http://www.w3.org/2000/svg">
<path d="M12 18.1217C12.3187 18.1217 12.5861 17.9898 12.8021 17.7258C13.0181 17.4618 13.1257 17.1355 13.125 16.7468C13.1242 16.3582 13.0162 16.0319 12.801 15.7679C12.5857 15.5039 12.3187 15.3719 12 15.3719C11.6812 15.3719 11.4142 15.5039 11.199 15.7679C10.9837 16.0319 10.8757 16.3582 10.875 16.7468C10.8742 17.1355 10.9823 17.4623 11.199 17.7272C11.4157 17.9921 11.6827 18.1236 12 18.1217ZM10.875 12.6221H13.125V4.37275H10.875V12.6221ZM0.75 27.746V2.99785C0.75 2.24165 0.9705 1.59453 1.4115 1.05649C1.8525 0.518444 2.382 0.248963 3 0.248047H21C21.6187 0.248047 22.1486 0.517527 22.5896 1.05649C23.0306 1.59545 23.2507 2.24257 23.25 2.99785V19.4966C23.25 20.2528 23.0299 20.9004 22.5896 21.4394C22.1494 21.9783 21.6195 22.2474 21 22.2464H5.25L0.75 27.746ZM4.29375 19.4966H21V2.99785H3V21.0434L4.29375 19.4966Z" fill="black"/>
</svg>
