<svg width="31" height="31" viewBox="0 0 31 31" fill="none" xmlns="http://www.w3.org/2000/svg">
<path d="M15.5 2.5C15.3437 2.50002 15.189 2.53594 15.0448 2.60567C14.9005 2.67541 14.7697 2.77757 14.6598 2.90625L2.74006 14.9494C2.66561 15.013 2.60511 15.096 2.56341 15.1916C2.52172 15.2872 2.5 15.3929 2.5 15.5C2.5 15.6815 2.56226 15.8555 2.67307 15.9838C2.78389 16.1121 2.93419 16.1842 3.09091 16.1842H6.04545V27.1316C6.04545 27.8869 6.57491 28.5 7.22727 28.5H11.9545C12.6069 28.5 13.1364 27.8869 13.1364 27.1316V18.9211H17.8636V27.1316C17.8636 27.8869 18.3931 28.5 19.0455 28.5H23.7727C24.4251 28.5 24.9545 27.8869 24.9545 27.1316V16.1842H27.9091C28.0658 16.1842 28.2161 16.1121 28.3269 15.9838C28.4377 15.8555 28.5 15.6815 28.5 15.5C28.5 15.3929 28.4783 15.2872 28.4366 15.1916C28.3949 15.096 28.3344 15.013 28.2599 14.9494L16.3471 2.91427C16.3448 2.91158 16.3425 2.90891 16.3402 2.90625C16.2303 2.77757 16.0995 2.67541 15.9552 2.60567C15.811 2.53594 15.6563 2.50002 15.5 2.5Z" fill="#5F8CF8"/>
</svg>
