<svg width="24" height="28" viewBox="0 0 24 28" fill="none" xmlns="http://www.w3.org/2000/svg">
<path d="M22.777 19.2333C22.6798 19.1106 22.5844 18.9878 22.4907 18.8693C21.2027 17.236 20.4235 16.2503 20.4235 11.6266C20.4235 9.23277 19.8773 7.26863 18.8007 5.79552C18.0068 4.70726 16.9337 3.88171 15.5192 3.2716C15.501 3.26098 15.4848 3.24706 15.4712 3.23047C14.9625 1.44433 13.5703 0.248047 12.0001 0.248047C10.43 0.248047 9.03839 1.44433 8.52964 3.22863C8.51608 3.24463 8.50005 3.25812 8.48221 3.26853C5.18148 4.69315 3.57737 7.42637 3.57737 11.6247C3.57737 16.2503 2.79931 17.236 1.51017 18.8675C1.41649 18.986 1.32107 19.1063 1.22388 19.2315C0.972846 19.5489 0.813793 19.9351 0.765548 20.3443C0.717303 20.7535 0.781885 21.1686 0.951652 21.5406C1.31287 22.3385 2.08273 22.8338 2.96148 22.8338H21.0452C21.9199 22.8338 22.6845 22.3391 23.0469 21.5449C23.2174 21.1728 23.2826 20.7574 23.2347 20.3477C23.1869 19.938 23.028 19.5513 22.777 19.2333ZM12.0001 27.746C12.8461 27.7453 13.6762 27.5046 14.4022 27.0493C15.1282 26.594 15.7232 25.9412 16.124 25.1601C16.1429 25.1227 16.1522 25.0808 16.1511 25.0385C16.1499 24.9961 16.1384 24.9548 16.1175 24.9186C16.0967 24.8823 16.0672 24.8523 16.032 24.8315C15.9969 24.8107 15.9572 24.7998 15.9168 24.7998H8.0847C8.04426 24.7997 8.00447 24.8105 7.96921 24.8313C7.93395 24.852 7.90442 24.882 7.88349 24.9183C7.86257 24.9546 7.85096 24.9959 7.8498 25.0383C7.84863 25.0807 7.85796 25.1227 7.87687 25.1601C8.27762 25.9411 8.8725 26.5939 9.59843 27.0491C10.3244 27.5044 11.1543 27.7452 12.0001 27.746Z" fill="black"/>
</svg>
