<svg width="36" height="35" viewBox="0 0 36 35" fill="none" xmlns="http://www.w3.org/2000/svg">
<path d="M33.3261 20.4855C32.678 19.4362 31.9691 18.4346 31.2141 17.4997C31.9691 16.5648 32.678 15.5632 33.3261 14.5139C33.4989 14.2348 33.535 13.9069 33.4542 13.6064C32.9666 10.8734 31.4902 8.40987 29.2837 6.64508C29.275 6.63554 29.2651 6.626 29.2551 6.61646C29.0201 6.39229 28.6855 6.28616 28.3696 6.27066C27.086 6.2802 25.826 6.36605 24.6108 6.52345C24.137 5.42166 23.5835 4.33536 22.9603 3.28126C22.8161 3.038 22.5884 2.85199 22.3161 2.75301C19.5337 1.749 16.4678 1.749 13.6854 2.75301C13.413 2.85199 13.1854 3.038 13.0411 3.28126C12.4192 4.33417 11.8658 5.42046 11.3906 6.52345C10.1755 6.36605 8.9155 6.2802 7.63191 6.27066C7.62818 6.27066 7.62569 6.27066 7.62196 6.27066C7.29609 6.27066 6.98265 6.39944 6.75006 6.61885C4.53986 8.37409 3.05602 10.8281 2.55602 13.5528C2.45403 13.8664 2.4901 14.217 2.67418 14.5151C3.32219 15.5644 4.03115 16.566 4.78613 17.5009C4.03115 18.4358 3.32219 19.4374 2.67418 20.4867C2.50129 20.7657 2.46522 21.0937 2.54607 21.3942C3.03363 24.1272 4.50876 26.5883 6.71399 28.3531C6.72395 28.3639 6.73514 28.3746 6.74509 28.3841C6.98017 28.6083 7.29733 28.7514 7.63191 28.7299C8.91674 28.7192 10.1767 28.6345 11.3894 28.4771C11.8633 29.5789 12.4168 30.6652 13.0399 31.7193C13.1842 31.9626 13.4118 32.1486 13.6842 32.2476C15.076 32.7496 16.5374 33 18.0001 33C19.4628 33 20.9243 32.7496 22.3161 32.2476C22.5884 32.1486 22.8161 31.9626 22.9603 31.7193C23.5822 30.6664 24.1357 29.5789 24.6108 28.4771C25.8248 28.6345 27.0835 28.7192 28.3683 28.7299C28.729 28.7335 29.0163 28.6035 29.2527 28.3806C31.4616 26.6265 32.9455 24.1737 33.4455 21.449C33.545 21.133 33.5101 20.7836 33.3261 20.4855ZM22.974 17.4997C22.974 20.1338 20.7464 22.2694 17.9989 22.2694C15.2513 22.2694 13.0237 20.1338 13.0237 17.4997C13.0237 14.8656 15.2513 12.73 17.9989 12.73C20.7464 12.73 22.974 14.8656 22.974 17.4997Z" fill="#5F8CF8"/>
</svg>
