<svg width="31" height="31" viewBox="0 0 31 31" fill="none" xmlns="http://www.w3.org/2000/svg">
<path d="M8.69048 2.5C5.27705 2.5 2.5 5.27705 2.5 8.69048V22.3095C2.5 25.723 5.27705 28.5 8.69048 28.5H22.3095C25.723 28.5 28.5 25.723 28.5 22.3095V8.69048C28.5 5.27705 25.723 2.5 22.3095 2.5H8.69048ZM18.3014 6.83212H19.7644C20.8694 6.83212 21.5079 7.50308 21.5079 8.6675C21.5079 9.87527 20.8775 10.5525 19.7644 10.5525H18.3014V6.83212ZM9.47638 6.83575H10.2852L10.8656 9.45582H10.9055L11.5838 6.83575H12.2403L12.9307 9.45582H12.9718L13.5461 6.83575H14.3502L13.3648 10.5525H12.6345L11.932 8.09198H11.8909L11.1957 10.5525H10.4606L9.47638 6.83575ZM15.0224 6.83575H17.4841V7.49954H15.7999V8.36765H17.3898V8.98428H15.7999V9.88867H17.4841V10.5525H15.0224V6.83575ZM19.0789 7.49833V9.88867H19.6399C20.3276 9.88867 20.7148 9.46517 20.7148 8.67959C20.7148 7.92745 20.3146 7.49833 19.6399 7.49833H19.0789ZM10.4751 12.4253C12.4251 12.4253 13.9161 13.7512 13.9161 15.4746C13.9161 16.6038 13.4042 17.4846 11.6201 19.3969L9.00725 22.2043V22.3252H14.0963V23.5452H7.06548V22.6118L10.8221 18.5094C12.2224 16.9884 12.5607 16.4013 12.5607 15.5278C12.5607 14.4439 11.6342 13.6078 10.4376 13.6078C9.16545 13.6078 8.3072 14.4586 8.3072 15.7382V15.7454H6.99777V15.7382C6.99777 13.8111 8.4576 12.4253 10.4751 12.4253ZM20.0872 12.4265C22.1196 12.4265 23.5573 13.631 23.5573 15.3247C23.5573 16.5145 22.8654 17.44 21.7437 17.7489V17.8698C23.1062 18.1261 24.001 19.2246 24.001 20.6398C24.0023 22.4994 22.3907 23.8015 20.0872 23.8015C17.7831 23.8015 16.1735 22.4994 16.1735 20.6398C16.1735 19.2246 17.0683 18.1255 18.4308 17.8698V17.7489C17.3239 17.448 16.6172 16.5071 16.6172 15.3247C16.6172 13.631 18.0549 12.4265 20.0872 12.4265ZM20.0872 13.586C18.7996 13.586 17.9496 14.3311 17.9496 15.4528C17.9496 16.5597 18.8077 17.2967 20.0872 17.2967C21.3668 17.2967 22.2261 16.5591 22.2261 15.4528C22.2261 14.3311 21.3749 13.586 20.0872 13.586ZM20.0872 18.4417C18.5811 18.4417 17.5433 19.2994 17.5433 20.5419C17.5433 21.7843 18.5811 22.642 20.0872 22.642C21.5928 22.642 22.6323 21.7843 22.6323 20.5419C22.6323 19.2994 21.5928 18.4417 20.0872 18.4417Z" fill="#5F8CF8"/>
</svg>
