<svg width="24" height="28" viewBox="0 0 24 28" fill="none" xmlns="http://www.w3.org/2000/svg">
<path d="M4.96875 0.248047H19.0312C20.1501 0.248047 21.2232 0.682612 22.0144 1.45614C22.8055 2.22967 23.25 3.27881 23.25 4.37275V23.6213C23.25 24.7153 22.8055 25.7644 22.0144 26.538C21.2232 27.3115 20.1501 27.746 19.0312 27.746H4.96875C3.84987 27.746 2.77681 27.3115 1.98564 26.538C1.19447 25.7644 0.75 24.7153 0.75 23.6213L0.75 4.37275C0.75 3.27881 1.19447 2.22967 1.98564 1.45614C2.77681 0.682612 3.84987 0.248047 4.96875 0.248047ZM6.375 9.87235C6.00204 9.87235 5.64435 10.0172 5.38063 10.275C5.11691 10.5329 4.96875 10.8826 4.96875 11.2472C4.96875 11.6119 5.11691 11.9616 5.38063 12.2194C5.64435 12.4773 6.00204 12.6221 6.375 12.6221H17.625C17.998 12.6221 18.3556 12.4773 18.6194 12.2194C18.8831 11.9616 19.0312 11.6119 19.0312 11.2472C19.0312 10.8826 18.8831 10.5329 18.6194 10.275C18.3556 10.0172 17.998 9.87235 17.625 9.87235H6.375ZM6.375 20.8715C6.00204 20.8715 5.64435 21.0164 5.38063 21.2742C5.11691 21.5321 4.96875 21.8818 4.96875 22.2464C4.96875 22.6111 5.11691 22.9608 5.38063 23.2186C5.64435 23.4765 6.00204 23.6213 6.375 23.6213H13.4062C13.7792 23.6213 14.1369 23.4765 14.4006 23.2186C14.6643 22.9608 14.8125 22.6111 14.8125 22.2464C14.8125 21.8818 14.6643 21.5321 14.4006 21.2742C14.1369 21.0164 13.7792 20.8715 13.4062 20.8715H6.375ZM6.375 4.37275C6.00204 4.37275 5.64435 4.5176 5.38063 4.77545C5.11691 5.03329 4.96875 5.383 4.96875 5.74765C4.96875 6.11229 5.11691 6.462 5.38063 6.71985C5.64435 6.97769 6.00204 7.12255 6.375 7.12255H17.625C17.998 7.12255 18.3556 6.97769 18.6194 6.71985C18.8831 6.462 19.0312 6.11229 19.0312 5.74765C19.0312 5.383 18.8831 5.03329 18.6194 4.77545C18.3556 4.5176 17.998 4.37275 17.625 4.37275H6.375ZM6.375 15.3719C6.00204 15.3719 5.64435 15.5168 5.38063 15.7746C5.11691 16.0325 4.96875 16.3822 4.96875 16.7468C4.96875 17.1115 5.11691 17.4612 5.38063 17.719C5.64435 17.9769 6.00204 18.1217 6.375 18.1217H17.625C17.998 18.1217 18.3556 17.9769 18.6194 17.719C18.8831 17.4612 19.0312 17.1115 19.0312 16.7468C19.0312 16.3822 18.8831 16.0325 18.6194 15.7746C18.3556 15.5168 17.998 15.3719 17.625 15.3719H6.375Z" fill="black"/>
</svg>
