<svg width="24" height="25" viewBox="0 0 24 25" fill="none" xmlns="http://www.w3.org/2000/svg">
<path d="M22.4026 15.9716C23.5824 16.7692 23.5281 18.6177 22.2398 19.3179L13.1791 24.249C12.8155 24.447 12.4105 24.5504 11.9993 24.5504C11.5881 24.5504 11.1831 24.447 10.8196 24.249L1.75878 19.3179C0.47178 18.6164 0.416262 16.7692 1.59602 15.9716L1.67551 16.0236L10.8196 21.0015C11.1831 21.1994 11.5881 21.3029 11.9993 21.3029C12.4105 21.3029 12.8155 21.1994 13.1791 21.0015L22.2398 16.0703C22.2957 16.0395 22.3491 16.0066 22.4026 15.9716ZM22.4026 10.7754C22.6631 10.9531 22.8769 11.1945 23.0247 11.4779C23.1726 11.7614 23.25 12.0781 23.25 12.3999C23.25 12.7216 23.1726 13.0384 23.0247 13.3218C22.8769 13.6053 22.6631 13.8466 22.4026 14.0243L22.2398 14.1218L13.1791 19.0529C12.8495 19.2323 12.4855 19.3344 12.113 19.3517C11.7406 19.3689 11.3691 19.3011 11.0252 19.1529L10.8208 19.0529L1.75878 14.1218C0.47178 13.4203 0.416262 11.5731 1.59602 10.7754L1.67551 10.8274L10.8196 15.8053C11.1493 15.9849 11.5136 16.0871 11.8862 16.1044C12.2588 16.1217 12.6306 16.0537 12.9747 15.9053L13.1791 15.8053L22.2398 10.8742C22.2957 10.8434 22.3491 10.8105 22.4026 10.7754ZM13.1791 0.549441L22.2398 5.48058C23.5849 6.21194 23.5849 8.19556 22.2398 8.92562L13.1791 13.8581C12.8155 14.056 12.4105 14.1595 11.9993 14.1595C11.5881 14.1595 11.1831 14.056 10.8196 13.8581L1.75878 8.92562C0.413738 8.19427 0.413738 6.21194 1.75878 5.48058L10.8196 0.549441C11.1831 0.351513 11.5881 0.248047 11.9993 0.248047C12.4105 0.248047 12.8155 0.351513 13.1791 0.549441Z" fill="black"/>
</svg>
